<svg width="1280" height="720" viewBox="0 0 1280 720" fill="none" xmlns="http://www.w3.org/2000/svg" role="img" aria-labelledby="title desc">
  <title id="title">CanopyKit hero graphic</title>
  <desc id="desc">A stylized canopy over a mesh of connected agent nodes with a central runtime control panel.</desc>
  <defs>
    <linearGradient id="bg" x1="80" y1="48" x2="1200" y2="672" gradientUnits="userSpaceOnUse">
      <stop stop-color="#08131A"/>
      <stop offset="1" stop-color="#122833"/>
    </linearGradient>
    <linearGradient id="canopy" x1="210" y1="92" x2="1072" y2="264" gradientUnits="userSpaceOnUse">
      <stop stop-color="#5BE087"/>
      <stop offset="1" stop-color="#17A96C"/>
    </linearGradient>
    <linearGradient id="panel" x1="340" y1="246" x2="938" y2="574" gradientUnits="userSpaceOnUse">
      <stop stop-color="#10222D"/>
      <stop offset="1" stop-color="#16323F"/>
    </linearGradient>
    <filter id="shadow" x="120" y="70" width="1040" height="560" filterUnits="userSpaceOnUse" color-interpolation-filters="sRGB">
      <feFlood flood-opacity="0" result="BackgroundImageFix"/>
      <feColorMatrix in="SourceAlpha" type="matrix" values="0 0 0 0 0 0 0 0 0 0 0 0 0 0 0 0 0 0 127 0" result="hardAlpha"/>
      <feOffset dy="20"/>
      <feGaussianBlur stdDeviation="20"/>
      <feComposite in2="hardAlpha" operator="out"/>
      <feColorMatrix type="matrix" values="0 0 0 0 0.0196078 0 0 0 0 0.0745098 0 0 0 0 0.109804 0 0 0 0.42 0"/>
      <feBlend mode="normal" in2="BackgroundImageFix" result="effect1_dropShadow_1_1"/>
      <feBlend mode="normal" in="SourceGraphic" in2="effect1_dropShadow_1_1" result="shape"/>
    </filter>
  </defs>
  <rect x="0" y="0" width="1280" height="720" rx="28" fill="url(#bg)"/>
  <g opacity="0.16">
    <circle cx="188" cy="580" r="164" fill="#1D404D"/>
    <circle cx="1100" cy="136" r="150" fill="#214A59"/>
    <circle cx="1034" cy="610" r="120" fill="#173944"/>
  </g>
  <g filter="url(#shadow)">
    <path d="M200 236C210 160 276 106 356 106H922C1002 106 1068 160 1078 236L1088 308H190L200 236Z" fill="url(#canopy)"/>
    <path d="M224 218C238 167 284 132 338 132H940C994 132 1040 167 1054 218" stroke="#CFF8DE" stroke-opacity="0.42" stroke-width="4"/>
    <rect x="322" y="244" width="636" height="332" rx="28" fill="url(#panel)" stroke="#2B5867" stroke-width="2"/>
    <rect x="356" y="280" width="264" height="112" rx="18" fill="#0C1A23" stroke="#2C5663"/>
    <rect x="356" y="416" width="264" height="124" rx="18" fill="#0C1A23" stroke="#2C5663"/>
    <rect x="650" y="280" width="272" height="260" rx="18" fill="#0C1A23" stroke="#2C5663"/>
  </g>
  <g opacity="0.75" stroke="#4ACB81" stroke-width="3">
    <path d="M222 524L366 468"/>
    <path d="M356 206L488 280"/>
    <path d="M924 202L792 280"/>
    <path d="M1056 524L914 468"/>
    <path d="M244 354L356 354"/>
    <path d="M1032 354L922 354"/>
  </g>
  <g fill="#D7FBE4">
    <circle cx="190" cy="536" r="22"/>
    <circle cx="1090" cy="536" r="22"/>
    <circle cx="338" cy="196" r="22"/>
    <circle cx="942" cy="196" r="22"/>
  </g>
  <g fill="#18313D" stroke="#6DE3A0" stroke-width="4">
    <circle cx="488" cy="280" r="22"/>
    <circle cx="792" cy="280" r="22"/>
    <circle cx="366" cy="468" r="22"/>
    <circle cx="914" cy="468" r="22"/>
  </g>
  <g fill="#EAFDF1">
    <text x="112" y="100" font-family="Verdana, Arial, sans-serif" font-size="18" letter-spacing="2.8" fill="#7EE6AB">CANOPY-NATIVE COORDINATION RUNTIME</text>
    <text x="108" y="164" font-family="Verdana, Arial, sans-serif" font-size="64" font-weight="700">CanopyKit</text>
    <text x="110" y="218" font-family="Verdana, Arial, sans-serif" font-size="26" fill="#B8D8C6">Wake on real work. Route addressed coordination. Leave evidence.</text>
  </g>
  <g fill="#EAFDF1" font-family="Verdana, Arial, sans-serif">
    <text x="384" y="320" font-size="15" fill="#76D79D">EVENT FEED</text>
    <text x="384" y="354" font-size="28" font-weight="700">Agent-scoped first</text>
    <text x="384" y="382" font-size="20" fill="#A7C9B5">cursor, fallback, compatibility</text>
    <text x="384" y="456" font-size="15" fill="#76D79D">CHANNEL ROUTING</text>
    <text x="384" y="490" font-size="28" font-weight="700">Only addressed work</text>
    <text x="384" y="518" font-size="20" fill="#A7C9B5">not ambient chatter</text>
    <text x="678" y="320" font-size="15" fill="#76D79D">DAEMON MODE</text>
    <text x="678" y="354" font-size="28" font-weight="700">Health you can inspect</text>
    <text x="678" y="392" font-size="18" fill="#A7C9B5">mode decisions</text>
    <text x="678" y="422" font-size="18" fill="#A7C9B5">claim discipline</text>
    <text x="678" y="452" font-size="18" fill="#A7C9B5">actions.jsonl</text>
    <text x="678" y="482" font-size="18" fill="#A7C9B5">run-status.json</text>
  </g>
</svg>
