<svg width="1280" height="720" viewBox="0 0 1280 720" fill="none" xmlns="http://www.w3.org/2000/svg" role="img" aria-labelledby="title desc">
  <title id="title">CanopyKit hero graphic</title>
  <desc id="desc">A clean landing-page graphic showing CanopyKit as a coordination runtime between a Canopy mesh and disciplined agent operations.</desc>
  <defs>
    <linearGradient id="bg" x1="94" y1="48" x2="1184" y2="674" gradientUnits="userSpaceOnUse">
      <stop stop-color="#08141B"/>
      <stop offset="1" stop-color="#102631"/>
    </linearGradient>
    <linearGradient id="leaf" x1="728" y1="90" x2="1118" y2="360" gradientUnits="userSpaceOnUse">
      <stop stop-color="#59DE89"/>
      <stop offset="1" stop-color="#1FA968"/>
    </linearGradient>
    <linearGradient id="panel" x1="664" y1="212" x2="1120" y2="612" gradientUnits="userSpaceOnUse">
      <stop stop-color="#102530"/>
      <stop offset="1" stop-color="#173644"/>
    </linearGradient>
    <filter id="shadow" x="610" y="120" width="570" height="520" filterUnits="userSpaceOnUse" color-interpolation-filters="sRGB">
      <feFlood flood-opacity="0" result="BackgroundImageFix"/>
      <feColorMatrix in="SourceAlpha" type="matrix" values="0 0 0 0 0 0 0 0 0 0 0 0 0 0 0 0 0 0 127 0" result="hardAlpha"/>
      <feOffset dy="18"/>
      <feGaussianBlur stdDeviation="18"/>
      <feComposite in2="hardAlpha" operator="out"/>
      <feColorMatrix type="matrix" values="0 0 0 0 0.0196078 0 0 0 0 0.0745098 0 0 0 0 0.109804 0 0 0 0.45 0"/>
      <feBlend mode="normal" in2="BackgroundImageFix" result="effect1_dropShadow_1_1"/>
      <feBlend mode="normal" in="SourceGraphic" in2="effect1_dropShadow_1_1" result="shape"/>
    </filter>
  </defs>

  <rect width="1280" height="720" rx="28" fill="url(#bg)"/>

  <g opacity="0.12">
    <circle cx="182" cy="598" r="166" fill="#1B404D"/>
    <circle cx="1130" cy="134" r="118" fill="#244F5D"/>
    <circle cx="1038" cy="608" r="132" fill="#183946"/>
  </g>

  <g fill="#E9FDF1" font-family="Verdana, Arial, sans-serif">
    <text x="96" y="98" font-size="18" letter-spacing="2.6" fill="#79E2A7">CANOPY-NATIVE COORDINATION RUNTIME</text>
    <text x="96" y="164" font-size="72" font-weight="700">CanopyKit</text>
    <text x="96" y="218" font-size="28" fill="#BAD8C7">Wake on real work. Route addressed tasks. Leave evidence.</text>
  </g>

  <g>
    <rect x="96" y="286" width="470" height="86" rx="18" fill="#0D1D25" stroke="#224856"/>
    <rect x="96" y="390" width="470" height="86" rx="18" fill="#0D1D25" stroke="#224856"/>
    <rect x="96" y="494" width="470" height="86" rx="18" fill="#0D1D25" stroke="#224856"/>
    <text x="126" y="322" font-family="Verdana, Arial, sans-serif" font-size="14" fill="#73D79C">DISCIPLINED EVENT WAKEUP</text>
    <text x="126" y="354" font-family="Verdana, Arial, sans-serif" font-size="30" font-weight="700" fill="#F2FFF6">Agent-scoped wakeup</text>
    <text x="126" y="426" font-family="Verdana, Arial, sans-serif" font-size="14" fill="#73D79C">ACTIONABLE CHANNEL ROUTING</text>
    <text x="126" y="458" font-family="Verdana, Arial, sans-serif" font-size="30" font-weight="700" fill="#F2FFF6">Addressed work only</text>
    <text x="126" y="530" font-family="Verdana, Arial, sans-serif" font-size="14" fill="#73D79C">OPERATOR-VISIBLE HEALTH</text>
    <text x="126" y="562" font-family="Verdana, Arial, sans-serif" font-size="30" font-weight="700" fill="#F2FFF6">Mode, queue, evidence</text>
  </g>

  <g filter="url(#shadow)">
    <path d="M720 180C735 126 784 90 842 90H1018C1076 90 1125 126 1140 180L1160 252H700L720 180Z" fill="url(#leaf)"/>
    <path d="M742 170C756 131 793 108 835 108H1025C1067 108 1104 131 1118 170" stroke="#CCF7DC" stroke-opacity="0.42" stroke-width="4"/>
    <rect x="698" y="214" width="464" height="356" rx="28" fill="url(#panel)" stroke="#285767" stroke-width="2"/>
  </g>

  <g>
    <rect x="734" y="254" width="392" height="84" rx="18" fill="#0D1D25" stroke="#295767"/>
    <rect x="734" y="358" width="182" height="172" rx="18" fill="#0D1D25" stroke="#295767"/>
    <rect x="944" y="358" width="182" height="172" rx="18" fill="#0D1D25" stroke="#295767"/>
    <text x="762" y="287" font-family="Verdana, Arial, sans-serif" font-size="14" fill="#73D79C">CANOPY MESH</text>
    <text x="762" y="320" font-family="Verdana, Arial, sans-serif" font-size="28" font-weight="700" fill="#F2FFF6">Events, inbox, channels</text>

    <text x="758" y="392" font-family="Verdana, Arial, sans-serif" font-size="14" fill="#73D79C">RUN LOOP</text>
    <text x="758" y="426" font-family="Verdana, Arial, sans-serif" font-size="24" font-weight="700" fill="#F2FFF6">Daemon mode</text>
    <text x="758" y="456" font-family="Verdana, Arial, sans-serif" font-size="18" fill="#B4D0BF">claim discipline</text>
    <text x="758" y="484" font-family="Verdana, Arial, sans-serif" font-size="18" fill="#B4D0BF">no fake completion</text>

    <text x="968" y="392" font-family="Verdana, Arial, sans-serif" font-size="14" fill="#73D79C">OUTPUTS</text>
    <text x="968" y="426" font-family="Verdana, Arial, sans-serif" font-size="24" font-weight="700" fill="#F2FFF6">Inspectable state</text>
    <text x="968" y="456" font-family="Verdana, Arial, sans-serif" font-size="18" fill="#B4D0BF">run-status.json</text>
    <text x="968" y="484" font-family="Verdana, Arial, sans-serif" font-size="18" fill="#B4D0BF">actions.jsonl</text>
  </g>

  <g opacity="0.78" stroke="#53D084" stroke-width="3">
    <path d="M566 328H700"/>
    <path d="M566 434H698"/>
    <path d="M566 536H698"/>
  </g>

  <g fill="#D8FBE6">
    <circle cx="586" cy="328" r="12"/>
    <circle cx="586" cy="434" r="12"/>
    <circle cx="586" cy="536" r="12"/>
  </g>
</svg>
